<svg xmlns="http://www.w3.org/2000/svg" xmlns:xlink="http://www.w3.org/1999/xlink" id="Layer_1" x="0" y="0" enable-background="new 0 0 96 96" version="1.1" viewBox="0 0 96 96" xml:space="preserve"><g><path d="M12,60C5.4,60,0,54.6,0,48c0-6.6,5.4-12,12-12s12,5.4,12,12C24,54.6,18.6,60,12,60z M12,44c-2.2,0-4,1.8-4,4 c0,2.2,1.8,4,4,4s4-1.8,4-4C16,45.8,14.2,44,12,44z"/></g><g><path d="M84.1,60c-6.6,0-12-5.4-12-12c0-6.6,5.4-12,12-12c6.6,0,12,5.4,12,12C96.1,54.6,90.7,60,84.1,60z M84.1,44 c-2.2,0-4,1.8-4,4c0,2.2,1.8,4,4,4c2.2,0,4-1.8,4-4C88.1,45.8,86.3,44,84.1,44z"/></g><g><path d="M48,60c-6.6,0-12-5.4-12-12c0-6.6,5.4-12,12-12c6.6,0,12,5.4,12,12C60,54.6,54.6,60,48,60z M48,44c-2.2,0-4,1.8-4,4 c0,2.2,1.8,4,4,4c2.2,0,4-1.8,4-4C52,45.8,50.2,44,48,44z"/></g></svg>