<svg xmlns="http://www.w3.org/2000/svg" xmlns:xlink="http://www.w3.org/1999/xlink" id="Layer_1" x="0" y="0" enable-background="new 0 0 64 64" version="1.1" viewBox="0 0 64 64" xml:space="preserve"><g><path d="M49.3,53.3H14.7C6.6,53.3,0,46.7,0,38.6c0-7.9,5.8-14.2,13.3-14.7c2-7.9,9.5-13.3,18.7-13.3c9.2,0,16.7,5.5,18.7,13.3 c7.5,0.4,13.3,6.7,13.3,14.7C64.1,46.7,57.5,53.3,49.3,53.3z M14.2,29.3c-5,0-8.8,4-8.8,9.3c0,5.1,4.2,9.3,9.3,9.3h34.6 c5.1,0,9.3-4.2,9.3-9.3c0-5.3-3.8-9.3-8.8-9.3c-0.3,0-0.7,0-1,0.1l-2.7,0.3l-0.3-2.7c-0.7-6.4-6.5-11-13.8-11 c-7.3,0-13.1,4.6-13.8,11l-0.3,2.7l-2.7-0.3C14.9,29.3,14.5,29.3,14.2,29.3z"/></g></svg>