<svg xmlns="http://www.w3.org/2000/svg" xmlns:xlink="http://www.w3.org/1999/xlink" id="Layer_1" x="0" y="0" enable-background="new 0 0 64 64" version="1.1" viewBox="0 0 64 64" xml:space="preserve"><g><path d="M8,40c-4.4,0-8-3.6-8-8c0-4.4,3.6-8,8-8s8,3.6,8,8C16,36.4,12.4,40,8,40z M8,29.3c-1.5,0-2.7,1.2-2.7,2.7 c0,1.5,1.2,2.7,2.7,2.7s2.7-1.2,2.7-2.7C10.7,30.5,9.5,29.3,8,29.3z"/></g><g><path d="M56,40c-4.4,0-8-3.6-8-8c0-4.4,3.6-8,8-8c4.4,0,8,3.6,8,8C64,36.4,60.4,40,56,40z M56,29.3c-1.5,0-2.7,1.2-2.7,2.7 c0,1.5,1.2,2.7,2.7,2.7c1.5,0,2.7-1.2,2.7-2.7C58.7,30.5,57.5,29.3,56,29.3z"/></g><g><path d="M32,40c-4.4,0-8-3.6-8-8c0-4.4,3.6-8,8-8c4.4,0,8,3.6,8,8C40,36.4,36.4,40,32,40z M32,29.3c-1.5,0-2.7,1.2-2.7,2.7 c0,1.5,1.2,2.7,2.7,2.7c1.5,0,2.7-1.2,2.7-2.7C34.7,30.5,33.5,29.3,32,29.3z"/></g></svg>