<svg xmlns="http://www.w3.org/2000/svg" xmlns:xlink="http://www.w3.org/1999/xlink" id="Layer_1" x="0" y="0" enable-background="new 0 0 64 64" version="1.1" viewBox="0 0 64 64" xml:space="preserve"><g><path d="M32,64C14.4,64,0,49.6,0,32C0,14.4,14.4,0,32,0c17.6,0,32,14.4,32,32C64,49.6,49.6,64,32,64z M32,5.3 C17.3,5.3,5.3,17.3,5.3,32c0,14.7,12,26.7,26.7,26.7c14.7,0,26.7-12,26.7-26.7C58.7,17.3,46.7,5.3,32,5.3z"/></g><g><line x1="40" x2="40" y1="24" y2="40"/><rect width="6" height="16" x="37" y="24"/></g><g><line x1="24" x2="24" y1="24" y2="40"/><rect width="6" height="16" x="21" y="24"/></g></svg>