<svg xmlns="http://www.w3.org/2000/svg" xmlns:xlink="http://www.w3.org/1999/xlink" id="Layer_1" x="0" y="0" enable-background="new 0 0 64 64" version="1.1" viewBox="0 0 64 64" xml:space="preserve"><g><path d="M32,64C14.4,64,0,49.6,0,32C0,14.4,14.4,0,32,0s32,14.4,32,32C64,49.6,49.6,64,32,64z M32,5.3C17.3,5.3,5.3,17.3,5.3,32 c0,14.7,12,26.7,26.7,26.7s26.7-12,26.7-26.7C58.7,17.3,46.7,5.3,32,5.3z"/></g><g><path d="M42.1,31.1l-15.9-9.4c-1.2-0.7-2.1-0.2-2.1,1.2v18.3c0,1.4,1,1.9,2.1,1.2l15.9-9.4c0,0,0.6-0.4,0.6-0.9 C42.7,31.5,42.1,31.1,42.1,31.1z"/></g></svg>