<svg xmlns="http://www.w3.org/2000/svg" xmlns:xlink="http://www.w3.org/1999/xlink" id="Layer_1" x="0" y="0" enable-background="new 0 0 64 64" version="1.1" viewBox="0 0 64 64" xml:space="preserve"><g><path d="M32,0C14.4,0,0,14.4,0,32c0,17.6,14.4,32,32,32c17.6,0,32-14.4,32-32C64,14.4,49.6,0,32,0z M32,58.7 c-14.7,0-26.7-12-26.7-26.7c0-14.7,12-26.7,26.7-26.7c14.7,0,26.7,12,26.7,26.7C58.7,46.7,46.7,58.7,32,58.7z"/><polygon points="35 16 29 16 29 29 16 29 16 35 29 35 29 48 35 48 35 35 48 35 48 29 35 29"/></g></svg>