<svg xmlns="http://www.w3.org/2000/svg" xmlns:xlink="http://www.w3.org/1999/xlink" id="Layer_1" x="0" y="0" enable-background="new 0 0 64 64" version="1.1" viewBox="0 0 64 64" xml:space="preserve"><g><path d="M32,64C14.4,64,0,49.6,0,32C0,14.4,14.4,0,32,0c17.6,0,32,14.4,32,32C64,49.6,49.6,64,32,64z M32,5.3 C17.3,5.3,5.3,17.3,5.3,32c0,14.7,12,26.7,26.7,26.7c14.7,0,26.7-12,26.7-26.7C58.7,17.3,46.7,5.3,32,5.3z"/></g><g><rect width="24.8" height="5.3" x="19.6" y="29.3" transform="matrix(0.7063 0.7079 -0.7079 0.7063 32.0419 -13.2686)"/></g><g><rect width="5.3" height="24.8" x="29.3" y="19.6" transform="matrix(0.7079 0.7063 -0.7063 0.7079 31.9368 -13.2598)"/></g></svg>