<svg xmlns="http://www.w3.org/2000/svg" xmlns:xlink="http://www.w3.org/1999/xlink" id="Layer_1" x="0" y="0" enable-background="new 0 0 64 64" version="1.1" viewBox="0 0 64 64" xml:space="preserve"><g><g><path d="M57.7,64H6.3C2.8,64,0,61.2,0,57.7V6.3C0,2.8,2.8,0,6.3,0h51.3C61.2,0,64,2.8,64,6.3v51.3C64,61.2,61.2,64,57.7,64z M6.3,5.3c-0.5,0-1,0.4-1,1v51.3c0,0.5,0.4,1,1,1h51.3c0.5,0,1-0.4,1-1V6.3c0-0.5-0.4-1-1-1H6.3z"/></g><g><path d="M57.7,64H6.3C2.8,64,0,61.2,0,57.7V6.3C0,2.8,2.8,0,6.3,0h51.3C61.2,0,64,2.8,64,6.3v51.3C64,61.2,61.2,64,57.7,64z M6.3,5.3c-0.5,0-1,0.4-1,1v51.3c0,0.5,0.4,1,1,1h51.3c0.5,0,1-0.4,1-1V6.3c0-0.5-0.4-1-1-1H6.3z"/></g><g><rect width="58.7" height="5.3" x="2.7" y="13.4"/></g><g><polygon points="17.3 48 13.6 44.3 19.2 38.7 13.5 33.2 17.2 29.3 26.8 38.6"/></g><g><rect width="13.4" height="5.3" x="34.7" y="42.6"/></g></g></svg>